# xmcd
#
# Track frame offsets: 
#        150
#        10434
#        22802
#        39298
#        57065
#        72579
#        88978
#        102833
#
# Disc length: 1505 seconds
#
# Revision: 0
# Processed by: cddbd v1.5.2PL0 Copyright (c) Steve Scherf et al.
# Submitted via: ExactAudioCopyFreeDBPlugin 1.0
#
DISCID=5f05df08
DTITLE=Eli Soriano - Songs From My ♥
DYEAR=2010
DGENRE=Classic Male Pop Vocal
TTITLE0=Blue Moon
TTITLE1=My Foolish Heart
TTITLE2=Maalaala Mo Kaya
TTITLE3=Matud Nila
TTITLE4=Atin Cu Pung Singsing
TTITLE5=Ti Ayat Ti Maysa
TTITLE6=Smile
TTITLE7=Where Is Your Heart
EXTD=
EXTT0=
EXTT1=
EXTT2=
EXTT3=
EXTT4=
EXTT5=
EXTT6=
EXTT7=
PLAYORDER=
